<mxfile host="app.diagrams.net" modified="2022-11-02T03:26:04.566Z" agent="5.0 (X11; Linux x86_64) AppleWebKit/537.36 (KHTML, like Gecko) Chrome/106.0.0.0 Safari/537.36" etag="38_d4bpr-eSW4LTMt5sn" version="20.5.1" type="github">
  <diagram id="vqr9QIB0Gyu4a4YX3N2w" name="第 1 页">
    <mxGraphModel dx="872" dy="748" grid="1" gridSize="10" guides="1" tooltips="1" connect="1" arrows="1" fold="1" page="1" pageScale="1" pageWidth="827" pageHeight="1169" math="0" shadow="0">
      <root>
        <mxCell id="0" />
        <mxCell id="1" parent="0" />
        <mxCell id="m4WnNkAXBSwYcj69suoh-6" style="edgeStyle=orthogonalEdgeStyle;rounded=0;orthogonalLoop=1;jettySize=auto;html=1;exitX=1;exitY=0.5;exitDx=0;exitDy=0;" edge="1" parent="1" source="m4WnNkAXBSwYcj69suoh-1" target="m4WnNkAXBSwYcj69suoh-2">
          <mxGeometry relative="1" as="geometry" />
        </mxCell>
        <mxCell id="m4WnNkAXBSwYcj69suoh-1" value="输入用户名、密码" style="rounded=0;whiteSpace=wrap;html=1;" vertex="1" parent="1">
          <mxGeometry x="90" y="90" width="120" height="60" as="geometry" />
        </mxCell>
        <mxCell id="m4WnNkAXBSwYcj69suoh-9" style="edgeStyle=orthogonalEdgeStyle;rounded=0;orthogonalLoop=1;jettySize=auto;html=1;exitX=0.5;exitY=1;exitDx=0;exitDy=0;entryX=0.5;entryY=0;entryDx=0;entryDy=0;" edge="1" parent="1" source="m4WnNkAXBSwYcj69suoh-2" target="m4WnNkAXBSwYcj69suoh-8">
          <mxGeometry relative="1" as="geometry" />
        </mxCell>
        <mxCell id="m4WnNkAXBSwYcj69suoh-2" value="接收用户名、密码" style="rounded=0;whiteSpace=wrap;html=1;" vertex="1" parent="1">
          <mxGeometry x="350" y="90" width="120" height="60" as="geometry" />
        </mxCell>
        <mxCell id="m4WnNkAXBSwYcj69suoh-12" style="edgeStyle=orthogonalEdgeStyle;rounded=0;orthogonalLoop=1;jettySize=auto;html=1;exitX=0;exitY=0.5;exitDx=0;exitDy=0;entryX=1;entryY=0.5;entryDx=0;entryDy=0;" edge="1" parent="1" source="m4WnNkAXBSwYcj69suoh-4" target="m4WnNkAXBSwYcj69suoh-11">
          <mxGeometry relative="1" as="geometry" />
        </mxCell>
        <mxCell id="m4WnNkAXBSwYcj69suoh-24" value="N" style="edgeLabel;html=1;align=center;verticalAlign=middle;resizable=0;points=[];" vertex="1" connectable="0" parent="m4WnNkAXBSwYcj69suoh-12">
          <mxGeometry x="-0.6503" y="1" relative="1" as="geometry">
            <mxPoint as="offset" />
          </mxGeometry>
        </mxCell>
        <mxCell id="m4WnNkAXBSwYcj69suoh-14" style="edgeStyle=orthogonalEdgeStyle;rounded=0;orthogonalLoop=1;jettySize=auto;html=1;exitX=0.5;exitY=1;exitDx=0;exitDy=0;entryX=1;entryY=0.5;entryDx=0;entryDy=0;" edge="1" parent="1" source="m4WnNkAXBSwYcj69suoh-4" target="m4WnNkAXBSwYcj69suoh-13">
          <mxGeometry relative="1" as="geometry" />
        </mxCell>
        <mxCell id="m4WnNkAXBSwYcj69suoh-27" value="Y" style="edgeLabel;html=1;align=center;verticalAlign=middle;resizable=0;points=[];" vertex="1" connectable="0" parent="m4WnNkAXBSwYcj69suoh-14">
          <mxGeometry x="-0.5793" y="-1" relative="1" as="geometry">
            <mxPoint as="offset" />
          </mxGeometry>
        </mxCell>
        <mxCell id="m4WnNkAXBSwYcj69suoh-4" value="校验通过" style="rhombus;whiteSpace=wrap;html=1;" vertex="1" parent="1">
          <mxGeometry x="353" y="300" width="114" height="50" as="geometry" />
        </mxCell>
        <mxCell id="m4WnNkAXBSwYcj69suoh-10" style="edgeStyle=orthogonalEdgeStyle;rounded=0;orthogonalLoop=1;jettySize=auto;html=1;exitX=0.5;exitY=1;exitDx=0;exitDy=0;entryX=0.5;entryY=0;entryDx=0;entryDy=0;" edge="1" parent="1" source="m4WnNkAXBSwYcj69suoh-8" target="m4WnNkAXBSwYcj69suoh-4">
          <mxGeometry relative="1" as="geometry" />
        </mxCell>
        <mxCell id="m4WnNkAXBSwYcj69suoh-8" value="校验用户名、密码" style="rounded=0;whiteSpace=wrap;html=1;" vertex="1" parent="1">
          <mxGeometry x="350" y="190" width="120" height="60" as="geometry" />
        </mxCell>
        <mxCell id="m4WnNkAXBSwYcj69suoh-22" style="edgeStyle=orthogonalEdgeStyle;rounded=0;orthogonalLoop=1;jettySize=auto;html=1;exitX=0.5;exitY=0;exitDx=0;exitDy=0;entryX=0.5;entryY=1;entryDx=0;entryDy=0;" edge="1" parent="1" source="m4WnNkAXBSwYcj69suoh-11" target="m4WnNkAXBSwYcj69suoh-1">
          <mxGeometry relative="1" as="geometry" />
        </mxCell>
        <mxCell id="m4WnNkAXBSwYcj69suoh-11" value="登录失败，显示提示信息" style="rounded=0;whiteSpace=wrap;html=1;" vertex="1" parent="1">
          <mxGeometry x="90" y="295" width="120" height="60" as="geometry" />
        </mxCell>
        <mxCell id="m4WnNkAXBSwYcj69suoh-23" style="edgeStyle=orthogonalEdgeStyle;rounded=0;orthogonalLoop=1;jettySize=auto;html=1;exitX=0.5;exitY=1;exitDx=0;exitDy=0;" edge="1" parent="1" source="m4WnNkAXBSwYcj69suoh-13" target="m4WnNkAXBSwYcj69suoh-18">
          <mxGeometry relative="1" as="geometry" />
        </mxCell>
        <mxCell id="m4WnNkAXBSwYcj69suoh-13" value="登录成功，跳转到首页" style="rounded=0;whiteSpace=wrap;html=1;" vertex="1" parent="1">
          <mxGeometry x="90" y="410" width="120" height="60" as="geometry" />
        </mxCell>
        <mxCell id="m4WnNkAXBSwYcj69suoh-18" value="结束" style="rounded=1;whiteSpace=wrap;html=1;" vertex="1" parent="1">
          <mxGeometry x="90" y="510" width="120" height="60" as="geometry" />
        </mxCell>
      </root>
    </mxGraphModel>
  </diagram>
</mxfile>
